<?xml version="1.0" standalone="no"?>
<!DOCTYPE svg PUBLIC "-//W3C//DTD SVG 20010904//EN"
 "http://www.w3.org/TR/2001/REC-SVG-20010904/DTD/svg10.dtd">
<svg version="1.0" xmlns="http://www.w3.org/2000/svg"
 width="608.000000pt" height="276.000000pt" viewBox="0 0 608.000000 276.000000"
 preserveAspectRatio="xMidYMid meet">

<g transform="translate(0.000000,276.000000) scale(0.100000,-0.100000)"
fill="#000000" stroke="none">
<path d="M0 1380 l0 -1380 3040 0 3040 0 0 1380 0 1380 -3040 0 -3040 0 0
-1380z m1835 950 c43 -17 75 -64 82 -121 3 -30 11 -63 17 -74 5 -11 14 -49 18
-85 4 -36 12 -103 18 -150 5 -47 15 -119 21 -160 18 -119 15 -340 -6 -379 -17
-34 -23 -72 -29 -203 -3 -60 -9 -87 -30 -124 -14 -25 -26 -53 -26 -61 0 -29
-82 -198 -111 -228 -16 -17 -29 -42 -29 -56 0 -33 -42 -92 -84 -118 -19 -12
-38 -30 -41 -40 -8 -26 -101 -109 -143 -129 -20 -9 -55 -31 -76 -49 -22 -18
-47 -33 -55 -33 -9 0 -46 -7 -83 -16 -61 -15 -71 -15 -115 -1 -27 9 -83 16
-128 16 -92 0 -157 23 -211 75 -18 17 -43 39 -57 48 -13 9 -32 34 -42 55 -20
42 -50 82 -111 148 -44 46 -74 116 -74 172 0 19 -7 47 -15 63 -8 16 -17 60
-19 97 -5 73 -18 152 -29 170 -6 9 -21 465 -18 523 1 8 0 83 0 165 -2 211 -2
212 4 294 5 81 21 110 77 149 45 30 115 30 161 -1 43 -29 79 -82 79 -117 0
-15 7 -45 16 -66 11 -25 14 -50 9 -74 -3 -19 -7 -199 -8 -399 -2 -324 0 -367
15 -391 9 -16 18 -57 21 -96 3 -57 17 -155 29 -216 2 -7 18 -35 35 -61 18 -27
33 -53 33 -59 0 -5 11 -21 26 -36 14 -15 28 -39 31 -55 4 -20 18 -33 53 -51
41 -21 55 -23 111 -17 39 5 83 18 113 34 27 15 55 27 62 27 23 0 119 111 145
168 15 31 40 70 58 86 23 23 31 39 31 65 0 20 9 56 21 80 12 28 21 72 23 116
2 39 9 81 16 94 6 13 13 52 15 87 2 36 7 70 12 77 20 25 21 400 1 424 -6 8
-12 38 -13 66 -1 29 -7 70 -13 92 -16 57 -1 183 28 229 12 20 22 36 23 36 1 0
20 7 42 15 38 14 75 12 120 -5z m3610 0 c43 -17 75 -64 82 -121 3 -30 11 -63
17 -74 5 -11 14 -49 18 -85 4 -36 12 -103 18 -150 5 -47 15 -119 21 -160 6
-41 11 -136 11 -211 0 -110 -3 -142 -18 -170 -18 -35 -20 -47 -27 -191 -4 -70
-10 -96 -31 -134 -14 -25 -26 -53 -26 -61 0 -29 -82 -198 -111 -228 -16 -17
-29 -42 -29 -56 0 -33 -42 -92 -84 -118 -19 -12 -38 -30 -41 -40 -8 -26 -101
-109 -143 -129 -20 -9 -55 -31 -76 -49 -22 -18 -47 -33 -55 -33 -9 0 -46 -7
-83 -16 -61 -15 -71 -15 -115 -1 -27 9 -83 16 -128 16 -92 0 -157 23 -211 75
-18 17 -43 39 -57 48 -13 9 -32 34 -42 54 -10 21 -28 49 -41 63 -13 14 -24 29
-24 33 0 4 -20 28 -44 52 -46 47 -76 115 -76 173 0 19 -7 47 -15 63 -8 16 -17
60 -19 97 -5 73 -18 152 -29 170 -6 9 -21 465 -18 523 1 8 0 83 0 165 -2 211
-2 212 4 294 5 81 21 110 77 149 45 30 115 30 161 -1 43 -29 79 -82 79 -117 0
-15 7 -45 16 -66 11 -25 14 -50 9 -74 -3 -19 -7 -199 -8 -399 -2 -321 0 -367
14 -391 10 -15 19 -61 23 -106 9 -110 12 -134 20 -171 4 -18 8 -36 8 -40 1 -5
16 -30 35 -57 18 -26 33 -52 33 -58 0 -5 11 -21 26 -36 14 -15 28 -39 31 -55
4 -20 18 -33 53 -51 41 -21 55 -23 111 -17 39 5 83 18 113 34 27 15 55 27 62
27 23 0 119 111 145 168 15 31 40 70 58 86 23 23 31 39 31 65 0 20 9 56 21 80
12 28 21 72 23 116 2 39 9 81 16 94 7 13 13 52 14 87 1 34 7 68 13 76 22 28
22 399 0 426 -6 8 -11 37 -12 65 -1 29 -7 70 -13 92 -16 56 -1 183 26 228 38
61 106 78 187 47z m-1547 -436 c13 -8 28 -27 33 -42 14 -34 5 -121 -15 -160
-9 -17 -16 -46 -16 -64 0 -18 -12 -60 -25 -93 -14 -33 -25 -67 -25 -75 0 -8
-12 -37 -25 -65 -14 -27 -25 -58 -25 -67 0 -9 -10 -38 -22 -65 -11 -26 -22
-74 -24 -106 -1 -35 -10 -69 -20 -85 -10 -15 -19 -44 -20 -64 -1 -21 -11 -57
-23 -81 -12 -25 -21 -64 -21 -93 -1 -27 -7 -60 -15 -74 -8 -14 -14 -46 -15
-71 0 -26 -9 -75 -20 -109 -11 -34 -20 -68 -20 -74 0 -6 -14 -29 -30 -50 -17
-22 -30 -45 -30 -52 0 -7 -19 -29 -42 -48 -36 -31 -48 -36 -94 -36 -45 0 -59
5 -89 31 -19 17 -35 39 -35 49 0 9 -14 35 -31 56 -44 54 -59 96 -64 167 -2 42
-12 78 -29 111 -14 27 -26 64 -26 81 0 17 -9 50 -20 73 -11 22 -20 58 -20 79
0 39 -14 72 -25 61 -9 -8 -24 -69 -35 -133 -4 -27 -15 -66 -24 -85 -8 -19 -20
-61 -26 -92 -6 -32 -16 -60 -21 -63 -5 -4 -9 -21 -9 -38 0 -18 -9 -52 -20 -76
-11 -24 -20 -54 -20 -67 0 -37 -24 -86 -59 -118 -25 -24 -42 -31 -89 -34 -51
-4 -65 0 -101 22 -45 29 -81 78 -81 112 0 12 -9 32 -19 45 -24 30 -51 95 -51
121 0 11 -16 38 -34 60 -25 28 -39 59 -50 105 -8 36 -21 72 -29 81 -19 23 -37
78 -37 117 0 18 -7 49 -15 68 -8 20 -15 46 -15 58 0 11 -15 39 -34 61 -25 29
-36 53 -41 91 -4 28 -14 61 -22 74 -18 27 -44 123 -37 135 3 5 -4 32 -16 60
-31 71 -33 211 -5 250 48 65 155 69 213 8 32 -34 92 -147 92 -175 0 -11 11
-42 25 -69 14 -27 25 -60 25 -72 0 -13 9 -39 20 -59 11 -20 20 -44 20 -55 0
-11 10 -38 21 -60 12 -23 24 -62 27 -88 2 -26 10 -54 17 -62 13 -17 35 -88 35
-116 1 -20 33 -64 47 -64 15 0 36 72 38 130 1 31 10 70 19 87 9 18 16 54 16
80 0 26 7 62 16 78 9 17 17 53 19 80 4 80 23 165 42 195 10 15 40 46 66 69 64
55 104 55 206 3 83 -42 104 -68 114 -146 4 -29 18 -63 33 -83 38 -49 54 -96
54 -155 0 -29 7 -66 16 -83 9 -16 18 -65 21 -107 4 -56 10 -78 19 -78 8 0 14
9 14 19 0 11 4 22 9 25 4 3 11 38 15 77 3 39 18 99 31 134 14 34 25 81 25 106
0 29 9 59 25 88 16 27 30 73 36 120 12 86 15 92 64 150 19 24 35 49 35 57 0
23 60 83 94 94 40 12 124 3 154 -16z"/>
</g>
</svg>
